<svg xmlns="http://www.w3.org/2000/svg" xmlns:xlink="http://www.w3.org/1999/xlink" viewBox="0 0 550 235" width="550" height="235"><style>text{font-family:Georgia,serif}.sans{font-family:Arial,sans-serif}</style><g fill="#20221f"><path d="M20 210V25H8V20H62L123 166L180 20H228V25H213V210H229V215H155V210H171V51L108 215H102L28 40V195Q28 210 48 210V215H7V210Z"/><path d="M249 20H326V25H308V210H326V215H249V210H267V25H249Z"/><path fill-rule="evenodd" d="M347 20H435C494 20 516 37 516 70C516 99 496 117 467 120L528 210H542V215H488L424 124H406V210H425V215H347V210H365V25H347ZM406 25V119H429C460 119 473 101 473 72C473 42 460 25 430 25Z"/></g></svg>